# xmcd
#
# Track frame offsets: 
#        150
#        17134
#        38128
#        53533
#        65242
#        80093
#        93851
#        109542
#        126490
#        141770
#        156024
#        171378
#        173924
#
# Disc length: 2577 seconds
#
# Revision: 0
# Processed by: cddbd v1.4PL0 Copyright (c) Steve Scherf et al.
# Submitted via: ExactAudioCopy v0.90a11
#
DISCID=af0a0f0d
DTITLE=Pat Green - George's Bar
DYEAR=1900
DGENRE=
TTITLE0=Songs About Texas
TTITLE1=George's Bar
TTITLE2=Snowing On Raton
TTITLE3=Going Away
TTITLE4=The Ballad of Arkansas Dave Rudebaugh
TTITLE5=1-900 Lover
TTITLE6=John Wayne and Jesus
TTITLE7=Just Fine
TTITLE8=Trailer Park Tune
TTITLE9=Adios Days
TTITLE10=If I Had a Million
TTITLE11=Hidden
TTITLE12=Songs About Texas (Acoustic)
EXTD=
EXTT0=
EXTT1=
EXTT2=
EXTT3=
EXTT4=
EXTT5=
EXTT6=
EXTT7=
EXTT8=
EXTT9=
EXTT10=
EXTT11=
EXTT12=
PLAYORDER=
